<svg xmlns="http://www.w3.org/2000/svg" width="1550" height="523" viewBox="0 0 1550 523" fill="none"><path d="M606.18 203.625C606.18 240.083 615.294 269.185 633.523 290.93C651.883 312.674 676.232 323.547 706.57 323.547C736.909 323.547 761.193 312.674 779.422 290.93C797.781 269.185 806.961 240.083 806.961 203.625C806.961 167.167 797.846 138.13 779.617 116.516C761.388 94.901 737.039 84.0938 706.57 84.0938C676.232 84.0938 651.883 94.901 633.523 116.516C615.294 138.13 606.18 167.167 606.18 203.625ZM562.625 203.625C562.625 182.792 566.401 163.456 573.953 145.617C581.505 127.648 592.508 111.893 606.961 98.3516C619.591 86.6328 634.5 77.5833 651.688 71.2031C669.005 64.8229 687.299 61.6328 706.57 61.6328C725.841 61.6328 744.07 64.8229 761.258 71.2031C778.576 77.5833 793.549 86.6328 806.18 98.3516C820.763 112.023 831.766 127.779 839.188 145.617C846.74 163.326 850.516 182.661 850.516 203.625C850.516 224.719 846.74 244.185 839.188 262.023C831.766 279.862 820.763 295.617 806.18 309.289C793.549 321.008 778.576 330.057 761.258 336.438C744.07 342.818 725.841 346.008 706.57 346.008C687.299 346.008 669.005 342.818 651.688 336.438C634.5 330.057 619.591 321.008 606.961 309.289C592.508 295.747 581.505 279.992 573.953 262.023C566.401 244.055 562.625 224.589 562.625 203.625ZM853.719 338V226.867H875.789C879.956 256.034 890.893 279.016 908.602 295.812C926.31 312.479 948.576 320.812 975.398 320.812C994.799 320.812 1010.36 316.19 1022.08 306.945C1033.8 297.701 1039.66 285.526 1039.66 270.422C1039.66 257.531 1035.23 247.505 1026.38 240.344C1017.52 233.052 1001.31 226.802 977.742 221.594L944.539 214.367C908.602 206.294 884.578 196.659 872.469 185.461C860.49 174.263 854.5 157.792 854.5 136.047C854.5 113.391 863.224 95.3568 880.672 81.9453C898.12 68.4036 921.688 61.6328 951.375 61.6328C966.089 61.6328 979.956 64.1068 992.977 69.0547C1006.13 73.8724 1018.89 81.3594 1031.26 91.5156L1042.98 67.2969H1061.73V168.859H1040.05C1036.66 141.776 1027.35 121.008 1012.12 106.555C997.013 92.1016 976.896 84.875 951.766 84.875C931.974 84.875 916.544 88.9115 905.477 96.9844C894.409 104.927 888.875 116.06 888.875 130.383C888.875 141.581 893.237 150.695 901.961 157.727C910.815 164.628 924.617 169.901 943.367 173.547L982.039 181.555C1016.41 188.456 1040.7 198.026 1054.89 210.266C1069.08 222.505 1076.18 239.758 1076.18 262.023C1076.18 286.893 1066.93 307.141 1048.45 322.766C1030.09 338.26 1006.13 346.008 976.57 346.008C959.383 346.008 943.497 342.948 928.914 336.828C914.461 330.708 900.594 321.203 887.312 308.312L874.227 338H853.719ZM1070.4 338V316.711H1088.56C1100.15 316.711 1107.77 315.148 1111.41 312.023C1115.06 308.898 1116.88 300.63 1116.88 287.219V120.031C1116.88 106.75 1115.06 98.5469 1111.41 95.4219C1107.77 92.2969 1100.15 90.7344 1088.56 90.7344H1070.4V69.6406H1202.82V90.7344H1184.85C1173.13 90.7344 1165.45 92.2969 1161.8 95.4219C1158.29 98.5469 1156.53 106.75 1156.53 120.031V287.219C1156.53 300.63 1158.35 308.898 1162 312.023C1165.65 315.148 1173.26 316.711 1184.85 316.711H1202.82V338H1070.4ZM1310.34 226.867H1395.88L1352.33 112.023L1310.34 226.867ZM1211.51 338V316.711H1224.79C1233.77 316.711 1240.48 315.148 1244.91 312.023C1249.33 308.898 1253.3 302.779 1256.82 293.664L1343.15 69.6406H1376.74L1462.29 291.906C1466.07 302.062 1470.23 308.768 1474.79 312.023C1479.48 315.148 1486.38 316.711 1495.49 316.711H1506.82V338H1379.48V316.711H1401.16C1410.79 316.711 1417.04 315.93 1419.91 314.367C1422.9 312.805 1424.4 309.615 1424.4 304.797C1424.4 303.885 1424.14 302.518 1423.62 300.695C1423.1 298.742 1422.38 296.529 1421.47 294.055L1404.67 247.961H1302.33L1287.48 285.656C1285.27 291.385 1283.77 295.747 1282.99 298.742C1282.34 301.607 1282.02 304.016 1282.02 305.969C1282.02 310.135 1283.58 313 1286.7 314.562C1289.83 315.995 1296.79 316.711 1307.6 316.711H1327.52V338H1211.51Z" fill="#30A6B0"></path><path d="M622.096 470.845C615.864 470.845 610.247 469.759 605.245 467.585C600.243 465.412 595.979 462.317 592.453 458.299C588.968 454.281 586.303 449.443 584.458 443.785C582.613 438.086 581.69 431.731 581.69 424.72C581.69 415.454 583.289 407.377 586.487 400.489C589.726 393.56 594.359 388.189 600.386 384.376C606.413 380.563 613.65 378.656 622.096 378.656C631.526 378.656 639.193 380.87 645.097 385.298C651.042 389.685 655.183 395.589 657.52 403.01L648.418 405.224C646.491 399.812 643.313 395.487 638.885 392.248C634.498 389.009 629.025 387.389 622.465 387.389C615.536 387.348 609.775 388.906 605.183 392.063C600.591 395.179 597.127 399.566 594.79 405.224C592.494 410.841 591.325 417.34 591.284 424.72C591.243 432.1 592.371 438.598 594.667 444.215C597.004 449.791 600.489 454.178 605.122 457.376C609.755 460.533 615.536 462.132 622.465 462.173C628.82 462.173 634.068 460.943 638.209 458.483C642.35 456.023 645.486 452.497 647.618 447.905C649.791 443.313 651.021 437.881 651.308 431.608H630.89V423.859H660.779C660.902 424.802 660.964 425.806 660.964 426.872C661.005 427.897 661.025 428.635 661.025 429.086C661.025 437.081 659.59 444.236 656.72 450.55C653.85 456.823 649.525 461.784 643.744 465.433C638.004 469.041 630.788 470.845 622.096 470.845ZM674.565 469V380.44H683.605V460.328H725.671V469H674.565ZM769.608 470.845C760.793 470.845 753.352 468.897 747.284 465.002C741.216 461.066 736.624 455.634 733.508 448.705C730.392 441.776 728.834 433.781 728.834 424.72C728.834 415.659 730.392 407.664 733.508 400.735C736.624 393.806 741.216 388.394 747.284 384.499C753.352 380.563 760.793 378.595 769.608 378.595C778.464 378.595 785.906 380.563 791.933 384.499C798.001 388.394 802.593 393.806 805.709 400.735C808.866 407.664 810.444 415.659 810.444 424.72C810.444 433.781 808.866 441.776 805.709 448.705C802.593 455.634 798.001 461.066 791.933 465.002C785.906 468.897 778.464 470.845 769.608 470.845ZM769.608 462.173C776.537 462.173 782.318 460.595 786.951 457.438C791.584 454.281 795.049 449.894 797.345 444.277C799.682 438.619 800.85 432.1 800.85 424.72C800.85 417.34 799.682 410.841 797.345 405.224C795.049 399.607 791.584 395.22 786.951 392.063C782.318 388.906 776.537 387.307 769.608 387.266C762.679 387.266 756.919 388.845 752.327 392.002C747.735 395.159 744.27 399.566 741.933 405.224C739.637 410.841 738.469 417.34 738.428 424.72C738.387 432.1 739.514 438.598 741.81 444.215C744.147 449.791 747.632 454.178 752.265 457.376C756.898 460.533 762.679 462.132 769.608 462.173ZM822.76 469V380.44H856.954C861.915 380.44 866.241 381.465 869.931 383.515C873.621 385.565 876.491 388.332 878.541 391.817C880.591 395.261 881.616 399.074 881.616 403.256C881.616 408.012 880.345 412.256 877.803 415.987C875.261 419.677 871.858 422.239 867.594 423.674L867.471 420.661C873.211 422.301 877.721 425.171 881.001 429.271C884.281 433.371 885.921 438.332 885.921 444.154C885.921 449.279 884.834 453.707 882.661 457.438C880.488 461.128 877.434 463.977 873.498 465.986C869.562 467.995 864.99 469 859.783 469H822.76ZM831.862 460.328H857.569C861.177 460.328 864.416 459.693 867.286 458.422C870.156 457.11 872.411 455.265 874.051 452.887C875.732 450.509 876.573 447.639 876.573 444.277C876.573 440.997 875.814 438.045 874.297 435.421C872.78 432.797 870.71 430.706 868.086 429.148C865.503 427.549 862.551 426.749 859.23 426.749H831.862V460.328ZM831.862 418.201H856.893C859.722 418.201 862.305 417.565 864.642 416.294C866.979 414.982 868.824 413.199 870.177 410.944C871.571 408.689 872.268 406.085 872.268 403.133C872.268 398.951 870.812 395.548 867.901 392.924C865.031 390.3 861.362 388.988 856.893 388.988H831.862V418.201ZM892.044 469L922.548 380.44H934.54L965.044 469H955.635L926.668 385.483H930.235L901.453 469H892.044ZM905.635 447.536V439.049H951.391V447.536H905.635ZM977.38 469V380.44H986.421V460.328H1028.49V469H977.38Z" fill="#D14064"></path><path d="M267.745 512.451C402.643 512.451 512 402.559 512 267C512 131.441 402.643 21.5488 267.745 21.5488C132.847 21.5488 23.49 131.441 23.49 267C23.49 402.559 132.847 512.451 267.745 512.451Z" fill="#30A6B0"></path><path d="M267.745 512.451C402.643 512.451 512 402.559 512 267C512 131.441 402.643 21.5488 267.745 21.5488C132.847 21.5488 23.49 131.441 23.49 267C23.49 402.559 132.847 512.451 267.745 512.451Z" fill="url(#paint0_radial_89_78)"></path><path d="M267.745 21.5488C262.555 21.5488 257.402 21.7128 252.292 22.0338C379.991 30.0448 481.095 136.657 481.095 267C481.095 397.343 379.991 503.955 252.292 511.966C257.402 512.287 262.554 512.451 267.745 512.451C402.643 512.451 512 402.559 512 267C512 131.441 402.643 21.5488 267.745 21.5488V21.5488Z" fill="#288A93"></path><mask id="mask0_89_78" style="mask-type:alpha" maskUnits="userSpaceOnUse" x="23" y="21" width="489" height="492"><path d="M267.745 512.451C402.643 512.451 512 402.559 512 267C512 131.441 402.643 21.5488 267.745 21.5488C132.847 21.5488 23.49 131.441 23.49 267C23.49 402.559 132.847 512.451 267.745 512.451Z" fill="#30A6B0"></path></mask><g mask="url(#mask0_89_78)"><path d="M268 22C268 22 183.232 130.458 148.622 225.037C114.013 319.617 110 462 110 462" stroke="url(#paint1_linear_89_78)" stroke-width="25" stroke-linecap="round"></path><path d="M8.68284 261.005C8.68284 261.005 156.564 312.039 268.374 312.742C380.185 313.444 527.534 260.919 527.534 260.919" stroke="url(#paint2_linear_89_78)" stroke-width="25" stroke-linecap="round"></path><path d="M268 22C268 22 352.232 130.458 386.622 225.037C421.013 319.617 425 462 425 462" stroke="url(#paint3_linear_89_78)" stroke-width="25" stroke-linecap="round"></path></g><defs><radialGradient id="paint0_radial_89_78" cx="0" cy="0" r="1" gradientUnits="userSpaceOnUse" gradientTransform="translate(145 216) rotate(53.3334) scale(253.702 252.465)"><stop stop-color="white" stop-opacity="0.58"></stop><stop offset="1" stop-color="white" stop-opacity="0"></stop></radialGradient><linearGradient id="paint1_linear_89_78" x1="189" y1="22" x2="189" y2="462" gradientUnits="userSpaceOnUse"><stop stop-color="white"></stop><stop offset="1" stop-color="#AED9DD"></stop></linearGradient><linearGradient id="paint2_linear_89_78" x1="43.1405" y1="349.028" x2="493.076" y2="172.896" gradientUnits="userSpaceOnUse"><stop stop-color="white"></stop><stop offset="1" stop-color="#AED9DD"></stop></linearGradient><linearGradient id="paint3_linear_89_78" x1="346.5" y1="22" x2="346.5" y2="462" gradientUnits="userSpaceOnUse"><stop stop-color="white"></stop><stop offset="1" stop-color="#AED9DD"></stop></linearGradient></defs></svg>